<svg xmlns="http://www.w3.org/2000/svg" version="1.1" xmlns:xlink="http://www.w3.org/1999/xlink" xmlns:svgjs="http://svgjs.com/svgjs" width="1000" height="1000"><rect width="1000" height="1000" rx="250" ry="250" fill="#ffffff"></rect><g transform="matrix(14.316349227869178,0,0,14.316349227869178,142.55525776030174,-0.00006476115152054263)"><svg xmlns="http://www.w3.org/2000/svg" version="1.1" xmlns:xlink="http://www.w3.org/1999/xlink" xmlns:svgjs="http://svgjs.com/svgjs" width="49.93518" height="69.85021"><svg version="1.1" xmlns="http://www.w3.org/2000/svg" xmlns:xlink="http://www.w3.org/1999/xlink" width="49.93518" height="69.85021" viewBox="0,0,49.93518,69.85021"><g transform="translate(-215.03241,-145.0749)"><g data-paper-data="{&quot;isPaintingLayer&quot;:true}" fill-rule="nonzero" stroke-linejoin="miter" stroke-miterlimit="10" stroke-dasharray="" stroke-dashoffset="0" style="mix-blend-mode: normal"><g fill="none" stroke="#ffffff" stroke-width="10"><g><g><g><path d="M220.61751,209.92512v-59.78627h19.94278v59.78627z" stroke-linecap="butt"></path><path d="M220.234,150.75175v59.01317" stroke-linecap="round"></path></g><g data-paper-data="{&quot;index&quot;:null}" stroke-linecap="round"><path d="M240.56029,150.75175v59.01317"></path></g></g><path d="M220.03241,150.07491h20.56543" stroke-linecap="round"></path><path d="M220.24976,209.61219h20.56543" stroke-linecap="round"></path></g><g><path d="M232.22819,166.8142v-13.86971h27.02201v13.86971z" stroke-linecap="butt"></path><path d="M240.3587,168.249h18.89149" stroke-linecap="round"></path><path d="M240.33691,154.59664h18.89149" stroke-linecap="round"></path><path d="M259.96759,154.61843v12.91317" stroke-linecap="round"></path></g><g><path d="M232.2064,187.59697v-13.86971h27.02201v13.86971z" stroke-linecap="butt"></path><path d="M259.2284,189.03177h-18.89149" stroke-linecap="round"></path><path d="M240.31512,175.37941h18.89149" stroke-linecap="round"></path><path d="M259.9458,175.4012v12.91317" stroke-linecap="round"></path></g><g><path d="M232.18461,194.03176h27.022v13.86971c0,0 -14.09882,0 -19.08705,0c-0.44464,0 -3.0702,-1.46076 -3.55584,-1.91764c-3.02713,-2.8479 -4.37912,-11.95206 -4.37912,-11.95206z" stroke-linecap="butt"></path><path d="M259.20661,209.33627h-18.89149" stroke-linecap="round"></path><path d="M240.29333,195.68391h18.89149" stroke-linecap="round"></path><path d="M259.92401,195.7057v12.91317" stroke-linecap="round"></path></g></g><g fill="#0626ff" stroke="#000000"><g><g><g><path d="M220.61751,209.92512v-59.78627h19.94277v59.78627z" stroke-width="NaN" stroke-linecap="butt"></path><path d="M220.234,150.75175v59.01317" stroke-width="5" stroke-linecap="round"></path></g><g data-paper-data="{&quot;index&quot;:null}" stroke-width="5" stroke-linecap="round"><path d="M240.56029,150.75175v59.01317"></path></g></g><path d="M220.03241,150.07491h20.56543" stroke-width="5" stroke-linecap="round"></path><path d="M220.24976,209.61219h20.56543" stroke-width="5" stroke-linecap="round"></path></g><g><path d="M232.22819,166.8142v-13.86971h27.022v13.86971z" stroke-width="0" stroke-linecap="butt"></path><path d="M240.3587,168.249h18.89149" stroke-width="5" stroke-linecap="round"></path><path d="M240.33691,154.59664h18.89149" stroke-width="5" stroke-linecap="round"></path><path d="M259.96759,154.61843v12.91317" stroke-width="5" stroke-linecap="round"></path></g><g><path d="M232.2064,187.59697v-13.86971h27.02201v13.86971z" stroke-width="0" stroke-linecap="butt"></path><path d="M259.2284,189.03177h-18.89149" stroke-width="5" stroke-linecap="round"></path><path d="M240.31512,175.37941h18.89149" stroke-width="5" stroke-linecap="round"></path><path d="M259.9458,175.4012v12.91317" stroke-width="5" stroke-linecap="round"></path></g><g><path d="M232.18461,194.03176h27.02201v13.86971c0,0 -14.09882,0 -19.08705,0c-0.44465,0 -3.0702,-1.46076 -3.55584,-1.91764c-3.02713,-2.8479 -4.37912,-11.95206 -4.37912,-11.95206z" stroke-width="0" stroke-linecap="butt"></path><path d="M259.20661,209.33627h-18.89149" stroke-width="5" stroke-linecap="round"></path><path d="M240.29333,195.68391h18.89149" stroke-width="5" stroke-linecap="round"></path><path d="M259.92401,195.7057v12.91317" stroke-width="5" stroke-linecap="round"></path></g></g></g></g></svg></svg></g></svg>